<?xml version="1.0" encoding="UTF-8" standalone="no"?>
<svg
   xmlns:dc="http://purl.org/dc/elements/1.1/"
   xmlns:cc="http://creativecommons.org/ns#"
   xmlns:rdf="http://www.w3.org/1999/02/22-rdf-syntax-ns#"
   xmlns:svg="http://www.w3.org/2000/svg"
   xmlns="http://www.w3.org/2000/svg"
   xmlns:sodipodi="http://sodipodi.sourceforge.net/DTD/sodipodi-0.dtd"
   xmlns:inkscape="http://www.inkscape.org/namespaces/inkscape"
   width="128"
   height="128"
   version="1.1"
   viewBox="0 0 48 48"
   id="svg2"
   inkscape:version="0.47 r22583"
   sodipodi:docname="qgn_menu_SymDjvu.svg">
  <sodipodi:namedview
     pagecolor="#ffffff"
     bordercolor="#666666"
     borderopacity="1"
     objecttolerance="10"
     gridtolerance="10"
     guidetolerance="10"
     inkscape:pageopacity="0"
     inkscape:pageshadow="2"
     inkscape:window-width="686"
     inkscape:window-height="555"
     id="namedview91"
     showgrid="false"
     inkscape:zoom="1.84375"
     inkscape:cx="64"
     inkscape:cy="64"
     inkscape:window-x="0"
     inkscape:window-y="0"
     inkscape:window-maximized="0"
     inkscape:current-layer="g41" />
  <metadata
     id="metadata4">
    <rdf:RDF>
      <cc:Work
         rdf:about="">
        <dc:format>image/svg+xml</dc:format>
        <dc:type
           rdf:resource="http://purl.org/dc/dcmitype/StillImage" />
      </cc:Work>
    </rdf:RDF>
  </metadata>
  <defs
     id="defs6">
    <inkscape:perspective
       sodipodi:type="inkscape:persp3d"
       inkscape:vp_x="0 : 64 : 1"
       inkscape:vp_y="0 : 1000 : 0"
       inkscape:vp_z="128 : 64 : 1"
       inkscape:persp3d-origin="64 : 42.666667 : 1"
       id="perspective93" />
    <linearGradient
       id="linearGradient2426"
       y2="32.652"
       gradientUnits="userSpaceOnUse"
       x2="33.136"
       gradientTransform="matrix(0.96155022,0,0,0.95975021,10.891456,11.719836)"
       y1="40.518"
       x1="40.864">
      <stop
         stop-color="#342679"
         offset="0"
         id="stop9" />
      <stop
         stop-color="#dacfe4"
         offset="1"
         id="stop11" />
    </linearGradient>
    <linearGradient
       id="linearGradient2433"
       y2="34.153"
       gradientUnits="userSpaceOnUse"
       x2="0"
       gradientTransform="matrix(1.0191128,0,0,1.0689943,9.8096518,12.422605)"
       y1="34.006"
       x1="25.554">
      <stop
         stop-color="#f89c11"
         offset="0"
         id="stop14" />
      <stop
         stop-color="#fabf60"
         offset="1"
         id="stop16" />
    </linearGradient>
    <linearGradient
       id="linearGradient11653"
       y2="34.153"
       gradientUnits="userSpaceOnUse"
       x2="0"
       gradientTransform="matrix(0.4601868,0,0,0.9728475,2.2307835,28.622031)"
       y1="34.006"
       x1="25.554">
      <stop
         stop-color="#f89c11"
         offset="0"
         id="stop19" />
      <stop
         stop-color="#fabf60"
         offset="1"
         id="stop21" />
    </linearGradient>
    <linearGradient
       y2="693.08"
       gradientUnits="userSpaceOnUse"
       y1="726.94"
       gradientTransform="matrix(0.15529595,0,0,0.19399817,-111.30081,-112.42342)"
       x2="590.54"
       x1="679.44"
       id="linearGradient23">
      <stop
         stop-color="#8a0000"
         offset="0"
         id="stop25" />
      <stop
         stop-color="#e70000"
         stop-opacity="0.99586779"
         offset="1"
         id="stop27" />
    </linearGradient>
    <linearGradient
       id="linearGradient2468-7"
       y2="569.93"
       gradientUnits="userSpaceOnUse"
       y1="595.01"
       gradientTransform="matrix(0.16180476,0,0,0.24383541,-63.872693,-108.27686)"
       x2="481.09"
       x1="514.97">
      <stop
         stop-color="#c40000"
         offset="0"
         id="stop30" />
      <stop
         stop-color="#f40000"
         offset="1"
         id="stop32" />
    </linearGradient>
    <linearGradient
       id="linearGradient2451"
       y2="1.4611"
       gradientUnits="userSpaceOnUse"
       x2="11.675"
       gradientTransform="matrix(0.99541041,0,0,1.0296455,9.7210237,8.857968)"
       y1="44.966"
       x1="45.034">
      <stop
         stop-color="#342679"
         offset="0"
         id="stop35" />
      <stop
         stop-color="#7b51ae"
         stop-opacity="0.96862745"
         offset="0.72236"
         id="stop37" />
      <stop
         stop-color="#d9cce8"
         stop-opacity="0.96862745"
         offset="1"
         id="stop39" />
    </linearGradient>
  </defs>
  <g
     transform="matrix(1.000026,0,0,0.9968473,-8.6468597,-8.8584364)"
     id="g41">
    <path
       d="m 20.653066,9.5003861 0,47.0889959 22.545402,0 12.734067,-13.173165 0,-33.9158309 -35.279469,0 z"
       style="fill:url(#linearGradient2451);fill-rule:evenodd;stroke:none"
       id="path43" />
    <g
       transform="matrix(0.90196062,0,0,0.94807879,17.821495,-19.935707)"
       id="g45">
      <rect
         ry="2.7001999e-17"
         transform="matrix(0.9396926,-0.3420201,0.3420201,0.9396926,0,0)"
         width="11.895"
         y="57.056"
         x="3.1296"
         height="11.569"
         style="fill:#000000"
         id="rect47" />
      <rect
         ry="2.7001999e-17"
         transform="matrix(0.9396926,-0.3420201,0.3420201,0.9396926,0,0)"
         width="11.895"
         y="56.063"
         x="2.2307999"
         height="11.569"
         style="fill:url(#linearGradient11653)"
         id="rect49" />
    </g>
    <g
       transform="matrix(1.0191128,0,0,1.0689943,9.8096519,12.422605)"
       id="g51">
      <path
         d="M 10.92,40.67 H 26.41 V 28.71 H 10.92 v 11.96 z"
         id="path53"
         style="fill:#0f0c0c;fill-rule:nonzero" />
    </g>
    <g
       transform="matrix(0.90196062,0,0,0.94807879,9.9784275,13.14789)"
       style="fill:#816392;fill-opacity:0.86179516"
       id="g55">
      <g
         transform="translate(4.2261802,1.3274155)"
         id="g57">
        <path
           d="m 26.13,23.3 c 2.01,1.24 4.48,1.78 6.52,0.19 1.58,-1.21 1.85,-3.33 1.33,-5.41 -0.92,-3.59 -4.57,-7.53 -4.57,-7.53 L 18.97,-2.156 c 0,0 -0.13,-0.172 -0.43,-0.262 -0.41,-0.117 -1.04,0.262 -0.68,1.027 L 28.77,12.05 c 0,0 3.26,3.31 3.88,6.48 0.3,1.48 0.22,2.96 -0.92,3.87 -1.52,1.22 -3.44,0.54 -5.12,-0.54 -2.27,-1.44 -4.18,-3.77 -4.18,-3.77 L 7.777,0.68 7.613,2.6133 21.47,19.1403 c 0,0 2.08,2.56 4.66,4.16"
           style="fill:#816392;fill-opacity:0.86179516;fill-rule:nonzero"
           id="path59" />
      </g>
      <g
         transform="translate(4.2261807,1.4535628)"
         id="g61">
        <path
           d="m 28.3,15.98 c 2.01,2.56 0.16,3.71 -1.12,3.03 -1.88,-1 -4.43,-4.38 -4.43,-4.38 L 15.61,6.004 c -0.54,-0.746 -1.18,-0.359 -1.31,0.09 -0.1,0.347 0.24,0.683 0.24,0.683 l 7.19,8.703 c 0,0 2.2,2.6 3.4,3.74 3.5,3.37 7.76,0.15 4.05,-4.56 C 27.07,12 23.87,8.176 23.87,8.176 L 13.37,-4.707 11.86,-4.84 11.79,-4.051 22.51,8.719 c 0,0 3.64,4.521 5.79,7.261"
           style="fill:#816392;fill-opacity:0.86179516;fill-rule:nonzero"
           id="path63" />
      </g>
    </g>
    <rect
       ry="2.9670757e-17"
       height="12.713107"
       width="26.342117"
       y="42.57626"
       x="9.8096485"
       style="fill:url(#linearGradient2433)"
       id="rect65" />
    <text
       font-weight="normal"
       transform="scale(0.9915063,1.0085665)"
       font-style="normal"
       font-size="41.30238724px"
       y="40.434292"
       x="6.855123"
       font-family="Bitstream Vera Sans"
       fill="#000000"
       id="text67" />
    <path
       style="text-align:start;fill:#000000"
       d="m 10.954227,44.480368 3.215246,0 c 0.628715,0 1.14176,0.09317 1.536947,0.269146 0.384933,0.176043 0.710639,0.434822 0.967261,0.776439 0.256622,0.341616 0.434307,0.724703 0.552664,1.180466 0.118456,0.445189 0.16783,0.921379 0.16783,1.418612 0,0.786806 -0.07896,1.398082 -0.256623,1.832289 -0.167829,0.424454 -0.404643,0.786806 -0.700784,1.087055 -0.305996,0.289881 -0.631701,0.486557 -0.977116,0.579763 -0.473726,0.134573 -0.908033,0.196676 -1.29008,0.196676 l -3.215245,0 0,-7.340446 m 2.164069,1.656758 0,4.016664 0.529968,0 c 0.452026,0 0.774745,-0.05177 0.962284,-0.155308 0.197394,-0.103573 0.345415,-0.289881 0.454017,-0.54866 0.108601,-0.269146 0.157875,-0.693601 0.157875,-1.273877 0,-0.786806 -0.118456,-1.314937 -0.365224,-1.604407 -0.236913,-0.289882 -0.638569,-0.434822 -1.199495,-0.434822 l -0.539923,0 m 5.361397,-1.656759 1.944079,0 0,1.398082 -1.944079,0 0,-1.398082 m 0,2.01911 1.944079,0 0,5.166336 c 0,0.652233 -0.03948,1.11785 -0.138166,1.398082 -0.08883,0.269147 -0.256622,0.496925 -0.50339,0.662601 -0.236913,0.176043 -0.592183,0.258779 -1.046199,0.258779 -0.375079,0 -0.83895,-0.06211 -1.401568,-0.176044 l 0.296141,-1.480202 c 0.157875,0.03106 0.266477,0.05177 0.345415,0.05177 0.157875,0 0.286186,-0.06211 0.375078,-0.186308 0.07896,-0.113838 0.128312,-0.351984 0.128312,-0.703968 l 0,-4.989779 m 2.624954,-2.01911 2.260626,0 1.578755,5.280276 1.559842,-5.280276 2.190946,0 -2.596087,7.340446 -2.349219,0 -2.644863,-7.340446 m 13.189474,7.340446 -1.815668,0 0,-0.859277 c -0.266477,0.351984 -0.542809,0.610866 -0.819141,0.755806 -0.276332,0.155309 -0.611892,0.227779 -1.006382,0.227779 -0.542809,0 -0.957406,-0.165676 -1.263203,-0.496925 -0.305996,-0.341617 -0.454016,-0.859277 -0.454016,-1.553083 l 0,-3.395636 1.954033,0 0,2.929609 c 0,0.331249 0.05922,0.569395 0.177684,0.714336 0.118457,0.134573 0.276332,0.207043 0.493535,0.207043 0.236913,0 0.424353,-0.09318 0.572473,-0.279514 0.148021,-0.186308 0.217104,-0.528027 0.217104,-1.004217 l 0,-2.567257 1.944079,0 0,5.321336"
       id="path69" />
    <path
       d="m 43.23455,55.676336 0,-12.137362 12.162732,0"
       id="path71"
       style="fill:url(#linearGradient2426);fill-rule:evenodd;stroke:#000000;stroke-width:0.96064973px;stroke-linecap:butt;stroke-linejoin:miter" />
    <g
       transform="matrix(1.0191128,0,0,1.0689943,9.755461,-2.0929037)"
       id="g73">
      <path
         style="fill:#0f0c0c;fill-rule:nonzero"
         d="M 10.92,40.67 H 26.41 V 28.71 H 10.92 v 11.96 z"
         id="path75" />
    </g>
    <rect
       style="fill:url(#linearGradient2468-7);stroke:none"
       height="12.860133"
       width="26.750549"
       stroke-miterlimit="4"
       y="27.921953"
       x="9.5822554"
       id="rect77" />
    <g
       transform="matrix(0.94782362,0,0,0.91312652,9.330096,13.098806)"
       id="g79">
      <g
         transform="translate(4.2261802,1.3274155)"
         id="g81">
        <path
           d="m 26.13,23.3 c 2.01,1.24 4.48,1.78 6.52,0.19 1.58,-1.21 1.85,-3.33 1.33,-5.41 -0.92,-3.59 -4.57,-7.53 -4.57,-7.53 L 18.97,-2.156 c 0,0 -0.13,-0.172 -0.43,-0.262 -0.41,-0.117 -1.04,0.262 -0.68,1.027 L 28.77,12.05 c 0,0 3.26,3.31 3.88,6.48 0.3,1.48 0.22,2.96 -0.92,3.87 -1.52,1.22 -3.44,0.54 -5.12,-0.54 -2.27,-1.44 -4.18,-3.77 -4.18,-3.77 L 7.777,0.68 7.613,2.6133 21.47,19.1403 c 0,0 2.08,2.56 4.66,4.16"
           style="fill:#ffffff;fill-rule:nonzero"
           id="path83" />
      </g>
      <g
         transform="translate(4.2261807,1.4535628)"
         id="g85">
        <path
           d="m 28.3,15.98 c 2.01,2.56 0.16,3.71 -1.12,3.03 -1.88,-1 -4.43,-4.38 -4.43,-4.38 L 15.61,6.004 c -0.54,-0.746 -1.18,-0.359 -1.31,0.09 -0.1,0.347 0.24,0.683 0.24,0.683 l 7.19,8.703 c 0,0 2.2,2.6 3.4,3.74 3.5,3.37 7.76,0.15 4.05,-4.56 C 27.07,12 23.87,8.176 23.87,8.176 L 13.37,-4.707 11.86,-4.84 11.79,-4.051 22.51,8.719 c 0,0 3.64,4.521 5.79,7.261"
           style="fill:#ffffff;fill-rule:nonzero"
           id="path87" />
      </g>
    </g>
    <path
       d="m 14.975839,29.906584 1.903082,0 c 0.566023,6e-6 0.999925,0.24272 1.301395,0.728046 0.303867,0.481501 0.455801,1.168998 0.455801,2.063413 0,0.898008 -0.151934,1.589559 -0.455801,2.075 -0.301887,0.481503 -0.735789,0.722253 -1.301395,0.722253 l -0.756645,0 0,2.969416 -1.147063,0 0,-8.55836 m 1.147063,1.598827 0,2.390131 0.634534,0 c 0.222426,6e-6 0.394173,-0.103182 0.515344,-0.30957 0.121172,-0.210165 0.181758,-0.506295 0.181758,-0.888508 0,-0.382096 -0.06053,-0.676373 -0.181758,-0.88283 -0.121171,-0.206342 -0.292918,-0.30957 -0.515344,-0.30957 l -0.634534,0 m 4.468332,0.0688 0,5.221677 0.411066,0 c 0.468627,0 0.826093,-0.223604 1.071981,-0.670696 0.248288,-0.447093 0.372379,-1.096819 0.372379,-1.948716 0,-0.848421 -0.123152,-1.494556 -0.369355,-1.93713 -0.246305,-0.443269 -0.60471,-0.664903 -1.07511,-0.664903 l -0.411066,0 m -1.147063,-1.668342 1.20963,0 c 0.675204,5e-6 1.177304,0.09364 1.506824,0.280837 0.331606,0.183403 0.61566,0.496796 0.851955,0.940065 0.208557,0.385919 0.36341,0.831158 0.464665,1.335832 0.101306,0.504441 0.151933,1.075732 0.151933,1.713525 0,0.645787 -0.05066,1.223451 -0.151933,1.730904 -0.101306,0.504442 -0.256213,0.94968 -0.464665,1.335832 -0.238277,0.443269 -0.524312,0.758516 -0.857899,0.945857 -0.333586,0.183402 -0.834123,0.275161 -1.501609,0.275161 l -1.20963,0 0,-8.558361 m 5.063761,0 3.094985,0 0,1.668342 -1.947923,0 0,1.593035 1.832173,0 0,1.668341 -1.832173,0 0,3.628643 -1.147062,0 0,-8.558361"
       style="fill:#fff9f9"
       id="path89" />
  </g>
</svg>
